
<svg xmlns="http://www.w3.org/2000/svg" xmlns:xlink="http://www.w3.org/1999/xlink" width="250" zoomAndPan="magnify" viewBox="0 0 187.5 52.499999" height="70" preserveAspectRatio="xMidYMid meet" version="1.0"><defs><g/><clipPath id="82d6d70b76"><path d="M 42 3.175781 L 46 3.175781 L 46 7 L 42 7 Z M 42 3.175781 " clip-rule="nonzero"/></clipPath><clipPath id="069460e85d"><path d="M 7.265625 12 L 37 12 L 37 41.910156 L 7.265625 41.910156 Z M 7.265625 12 " clip-rule="nonzero"/></clipPath></defs><g fill="#f69d17" fill-opacity="1"><g transform="translate(43.702097, 40.365477)"><g><path d="M 19.421875 0.0664062 L 20.671875 -0.03125 L 21.296875 0.03125 L 22.316406 0 L 23.238281 -0.164062 L 23.335938 -0.953125 L 23.105469 -1.710938 L 22.613281 -2.929688 L 21.722656 -4.640625 L 21.261719 -5.859375 L 20.605469 -7.042969 L 19.355469 -10.039062 L 19.023438 -10.53125 L 18.695312 -11.160156 L 18.5 -11.882812 L 18.203125 -12.375 L 18.003906 -12.902344 L 17.3125 -14.121094 L 17.082031 -14.8125 L 14.910156 -19.386719 L 14.714844 -20.046875 L 14.351562 -20.636719 L 14.152344 -21.230469 L 13.527344 -22.382812 L 12.96875 -22.976562 L 11.882812 -23.304688 L 10.828125 -22.941406 L 10.238281 -22.382812 L 9.941406 -21.824219 L 9.710938 -21.164062 L 9.414062 -20.703125 L 8.097656 -17.675781 L 7.734375 -17.183594 L 7.570312 -16.523438 L 7.207031 -15.898438 L 7.011719 -15.304688 L 3.652344 -8.261719 L 3.457031 -7.539062 L 3.128906 -7.042969 L 2.898438 -6.386719 L 2.304688 -5.332031 L 1.808594 -4.015625 L 1.449219 -3.554688 L 1.285156 -2.960938 L 0.625 -1.644531 L 0.429688 -0.988281 L 0.59375 -0.164062 L 1.25 0.03125 L 2.535156 -0.03125 L 3.191406 0.03125 L 5.035156 -0.03125 L 5.792969 -0.261719 L 6.417969 -0.855469 L 7.011719 -1.941406 L 7.636719 -2.566406 L 8.328125 -2.929688 L 8.953125 -2.832031 L 10.335938 -2.960938 L 10.929688 -2.863281 L 14.152344 -2.898438 L 14.746094 -2.832031 L 15.46875 -2.929688 L 16.195312 -2.566406 L 16.820312 -2.039062 L 17.117188 -1.414062 L 17.3125 -0.824219 L 17.972656 -0.328125 L 18.730469 0 Z M 11.949219 -8.128906 L 11.289062 -8.261719 L 10.53125 -8.195312 L 10.007812 -8.425781 L 9.972656 -9.050781 L 11.519531 -12.605469 L 11.882812 -12.902344 L 12.34375 -12.640625 L 13.890625 -9.019531 L 13.757812 -8.425781 L 13.265625 -8.164062 Z M 11.949219 -8.128906 "/></g></g></g><g fill="#f69d17" fill-opacity="1"><g transform="translate(67.597861, 40.365477)"><g><path d="M 19.421875 -0.558594 L 20.308594 -0.03125 L 21.230469 0.0664062 L 21.953125 -0.164062 L 22.285156 -0.824219 L 22.351562 -12.835938 L 22.25 -13.398438 L 22.25 -16.65625 L 22.351562 -17.445312 L 22.25 -22.019531 L 21.921875 -22.679688 L 21.261719 -23.039062 L 17.183594 -23.007812 L 16.554688 -22.644531 L 16.195312 -21.953125 L 16.160156 -21.261719 L 16.261719 -20.738281 L 16.160156 -19.355469 L 16.226562 -18.628906 L 16.160156 -12.738281 L 15.964844 -12.179688 L 15.46875 -12.410156 L 13.132812 -14.746094 L 12.210938 -15.46875 L 5.726562 -22.019531 L 5.234375 -22.414062 L 4.476562 -22.808594 L 3.488281 -23.039062 L 2.730469 -22.710938 L 2.4375 -22.085938 L 2.4375 -12.113281 L 2.402344 -11.554688 L 2.46875 -10.203125 L 2.371094 -9.644531 L 2.4375 -4.246094 L 2.371094 -3.621094 L 2.4375 -0.855469 L 2.730469 -0.230469 L 3.421875 0 L 4.773438 0.0664062 L 5.496094 0 L 6.78125 0.0976562 L 7.472656 0.0664062 L 8.128906 -0.261719 L 8.460938 -1.285156 L 8.492188 -9.613281 L 8.558594 -10.269531 L 8.789062 -10.828125 L 9.214844 -10.664062 L 9.644531 -10.105469 L 11.980469 -7.867188 L 12.410156 -7.375 L 12.96875 -7.011719 L 18.070312 -1.941406 L 18.925781 -0.988281 Z M 19.421875 -0.558594 "/></g></g></g><g fill="#f69d17" fill-opacity="1"><g transform="translate(92.415221, 40.365477)"><g><path d="M 8.589844 0.0664062 L 10.796875 0 L 11.75 -0.328125 L 12.078125 -1.25 L 12.179688 -2.960938 L 12.078125 -4.214844 L 12.144531 -4.90625 L 12.113281 -6.222656 L 12.179688 -6.8125 L 12.078125 -7.539062 L 12.144531 -12.835938 L 12.046875 -13.527344 L 12.144531 -16.390625 L 12.410156 -17.378906 L 13.035156 -17.773438 L 14.316406 -17.839844 L 15.535156 -17.675781 L 16.226562 -17.773438 L 16.820312 -17.742188 L 17.378906 -18.105469 L 17.773438 -18.828125 L 17.808594 -21.953125 L 17.445312 -22.613281 L 16.820312 -23.039062 L 14.777344 -23.039062 L 14.152344 -23.105469 L 13.460938 -23.007812 L 12.835938 -23.074219 L 10.171875 -22.941406 L 9.511719 -23.074219 L 8.886719 -23.105469 L 8.195312 -23.007812 L 7.472656 -23.074219 L 6.878906 -22.941406 L 4.9375 -23.039062 L 3.917969 -22.941406 L 1.613281 -23.074219 L 0.988281 -22.746094 L 0.59375 -21.988281 L 0.625 -21.328125 L 0.558594 -19.683594 L 0.625 -18.664062 L 0.921875 -18.070312 L 1.515625 -17.742188 L 2.171875 -17.808594 L 5.300781 -17.742188 L 5.925781 -17.414062 L 6.285156 -16.753906 L 6.222656 -15.699219 L 6.285156 -14.777344 L 6.253906 -14.054688 L 6.285156 -13.398438 L 6.222656 -12.476562 L 6.320312 -7.570312 L 6.253906 -6.914062 L 6.222656 -4.246094 L 6.285156 -3.554688 L 6.253906 -1.644531 L 6.1875 -1.019531 L 6.617188 -0.296875 L 7.570312 0.03125 Z M 8.589844 0.0664062 "/></g></g></g><g fill="#f69d17" fill-opacity="1"><g transform="translate(110.814297, 40.365477)"><g><path d="M 13.199219 0.429688 L 16.128906 0.132812 L 17.378906 -0.261719 L 20.308594 -1.578125 L 22.613281 -3.785156 L 23.039062 -4.378906 L 24.324219 -6.648438 L 24.554688 -7.273438 L 24.652344 -7.933594 L 24.851562 -8.460938 L 24.984375 -9.183594 L 25.148438 -11.488281 L 24.984375 -13.757812 L 24.71875 -14.976562 L 24.457031 -15.667969 L 24.292969 -16.425781 L 23.699219 -17.511719 L 23.46875 -18.105469 L 23.039062 -18.664062 L 22.644531 -19.058594 L 22.21875 -19.652344 L 20.800781 -20.933594 L 19.125 -21.988281 L 14.8125 -23.335938 L 13.265625 -23.371094 L 10.960938 -23.238281 L 10.300781 -23.105469 L 9.644531 -22.910156 L 9.050781 -22.644531 L 7.800781 -22.316406 L 6.121094 -21.261719 L 5.660156 -20.867188 L 4.609375 -20.144531 L 3.71875 -19.15625 L 2.601562 -17.511719 L 2.304688 -16.953125 L 1.679688 -15.140625 L 1.414062 -13.726562 L 1.285156 -9.90625 L 1.644531 -7.832031 L 2.140625 -6.714844 L 2.335938 -6.023438 L 2.667969 -5.429688 L 4.214844 -3.324219 L 5.136719 -2.4375 L 5.5625 -1.941406 L 7.800781 -0.757812 L 8.425781 -0.492188 L 11.222656 0.328125 Z M 12.277344 -5.363281 L 11.621094 -5.59375 L 11.027344 -5.660156 L 9.90625 -6.253906 L 8.886719 -7.144531 L 8.558594 -7.601562 L 8.128906 -8.0625 L 7.503906 -9.90625 L 7.339844 -11.554688 L 7.375 -12.539062 L 7.601562 -13.757812 L 7.800781 -14.351562 L 8.195312 -14.8125 L 8.492188 -15.371094 L 8.921875 -15.898438 L 9.414062 -16.324219 L 10.367188 -16.984375 L 10.960938 -17.28125 L 11.652344 -17.445312 L 13.167969 -17.578125 L 14.746094 -17.476562 L 16.492188 -16.722656 L 17.511719 -15.964844 L 18.269531 -14.84375 L 18.53125 -14.253906 L 18.730469 -13.59375 L 18.960938 -13 L 19.089844 -11.585938 L 18.894531 -9.941406 L 18.597656 -8.589844 L 18.234375 -8.097656 L 17.9375 -7.601562 L 17.542969 -7.011719 L 16.523438 -6.222656 L 15.929688 -5.957031 L 15.40625 -5.660156 L 14.8125 -5.59375 L 14.1875 -5.429688 Z M 12.277344 -5.363281 "/></g></g></g><g fill="#f69d17" fill-opacity="1"><g transform="translate(137.211545, 40.365477)"><g><path d="M 2.402344 -0.953125 L 2.730469 -0.328125 L 3.457031 0 L 5.761719 0.0976562 L 7.40625 -0.03125 L 8.097656 -0.328125 L 8.492188 -1.316406 L 8.394531 -2.371094 L 8.460938 -2.996094 L 8.425781 -6.484375 L 8.722656 -7.144531 L 9.382812 -7.4375 L 10.105469 -7.503906 L 10.796875 -7.375 L 11.453125 -7.503906 L 12.113281 -7.4375 L 12.804688 -7.472656 L 13.460938 -7.40625 L 14.8125 -7.472656 L 15.503906 -7.800781 L 15.832031 -8.820312 L 15.800781 -11.75 L 15.46875 -12.410156 L 14.777344 -12.671875 L 13.167969 -12.738281 L 11.421875 -12.605469 L 10.136719 -12.769531 L 9.414062 -12.738281 L 8.753906 -13 L 8.394531 -13.691406 L 8.394531 -14.613281 L 8.460938 -15.238281 L 8.394531 -16.722656 L 8.722656 -17.378906 L 9.347656 -17.808594 L 10.402344 -17.808594 L 11.355469 -17.742188 L 11.949219 -17.773438 L 12.605469 -17.742188 L 13.296875 -17.808594 L 15.800781 -17.742188 L 16.457031 -18.070312 L 16.785156 -18.730469 L 16.722656 -20.40625 L 16.785156 -21.660156 L 16.390625 -22.644531 L 15.832031 -23.007812 L 13.859375 -22.976562 L 13.132812 -23.074219 L 11.847656 -23.007812 L 11.257812 -23.074219 L 10.269531 -23.007812 L 9.613281 -23.039062 L 8.589844 -22.976562 L 7.308594 -22.976562 L 6.714844 -23.039062 L 5.035156 -23.039062 L 4.34375 -22.976562 L 3.421875 -23.007812 L 2.699219 -22.644531 L 2.5 -22.054688 L 2.402344 -20.703125 L 2.5 -19.714844 L 2.371094 -16.03125 L 2.4375 -15.46875 L 2.46875 -14.777344 L 2.402344 -14.1875 L 2.46875 -13.429688 L 2.402344 -12.835938 L 2.371094 -12.210938 L 2.4375 -11.585938 L 2.371094 -10.828125 Z M 2.402344 -0.953125 "/></g></g></g><g fill="#f69d17" fill-opacity="1"><g transform="translate(155.149826, 40.365477)"><g><path d="M 7.539062 -0.988281 L 7.800781 -0.261719 L 8.492188 0 L 9.152344 0.03125 L 9.742188 -0.03125 L 10.761719 0.03125 L 11.683594 -0.03125 L 12.34375 0.03125 L 13 -0.328125 L 13.265625 -1.019531 L 13.363281 -4.839844 L 13.296875 -5.496094 L 13.296875 -6.15625 L 13.398438 -6.746094 L 13.363281 -8.65625 L 13.5625 -9.613281 L 13.890625 -10.46875 L 18.070312 -17.347656 L 18.464844 -17.808594 L 20.570312 -21.296875 L 20.933594 -22.121094 L 20.800781 -22.84375 L 20.210938 -22.976562 L 18.925781 -23.007812 L 18.234375 -22.941406 L 17.578125 -23.039062 L 16.292969 -23.007812 L 15.734375 -23.039062 L 14.84375 -22.710938 L 14.253906 -22.152344 L 13.398438 -20.738281 L 13 -19.75 L 12.277344 -18.695312 L 11.949219 -18.003906 L 11.621094 -17.445312 L 11.058594 -16.195312 L 10.632812 -15.636719 L 10.269531 -15.636719 L 9.90625 -16.261719 L 9.546875 -16.785156 L 8.558594 -18.628906 L 8.195312 -19.191406 L 6.648438 -22.085938 L 5.957031 -22.710938 L 5.199219 -23.007812 L 4.507812 -22.976562 L 3.949219 -23.105469 L 2.269531 -22.976562 L 0.757812 -23.074219 L 0.0976562 -22.746094 L 0 -22.019531 L 0.328125 -21.261719 L 1.746094 -18.925781 L 2.105469 -18.464844 L 3.457031 -16.128906 L 4.246094 -15.074219 L 4.507812 -14.484375 L 7.042969 -10.46875 L 7.375 -9.546875 L 7.539062 -8.65625 L 7.503906 -6.054688 L 7.570312 -5.398438 L 7.503906 -2.863281 L 7.570312 -2.238281 Z M 7.539062 -0.988281 "/></g></g></g><path fill="#f4970a" d="M 39.679688 14.519531 L 36.121094 14.519531 C 34.832031 14.519531 33.785156 13.480469 33.785156 12.199219 L 33.785156 8.660156 C 33.785156 7.378906 34.832031 6.339844 36.121094 6.339844 L 39.679688 6.339844 C 40.96875 6.339844 42.011719 7.378906 42.011719 8.660156 L 42.011719 12.199219 C 42.011719 13.480469 40.96875 14.519531 39.679688 14.519531 " fill-opacity="1" fill-rule="nonzero"/><path fill="#f4970a" d="M 44.851562 18.546875 L 43.097656 18.546875 C 42.460938 18.546875 41.945312 18.035156 41.945312 17.402344 L 41.945312 15.660156 C 41.945312 15.03125 42.460938 14.519531 43.097656 14.519531 L 44.851562 14.519531 C 45.484375 14.519531 46 15.03125 46 15.660156 L 46 17.402344 C 46 18.035156 45.484375 18.546875 44.851562 18.546875 " fill-opacity="1" fill-rule="nonzero"/><g clip-path="url(#82d6d70b76)"><path fill="#f4970a" d="M 44.421875 6.527344 L 42.96875 6.527344 C 42.441406 6.527344 42.011719 6.101562 42.011719 5.578125 L 42.011719 4.132812 C 42.011719 3.609375 42.441406 3.183594 42.96875 3.183594 L 44.421875 3.183594 C 44.949219 3.183594 45.375 3.609375 45.375 4.132812 L 45.375 5.578125 C 45.375 6.101562 44.949219 6.527344 44.421875 6.527344 " fill-opacity="1" fill-rule="nonzero"/></g><g clip-path="url(#069460e85d)"><path fill="#f4970a" d="M 30.558594 34.40625 C 30.558594 34.449219 30.507812 34.46875 30.480469 34.441406 L 25.636719 29.707031 C 25.628906 29.699219 25.625 29.6875 25.625 29.675781 L 25.625 28.851562 C 25.621094 28.851562 25.613281 28.847656 25.609375 28.84375 L 25.554688 25.515625 C 25.554688 24.425781 25.222656 23.597656 24.5625 23.027344 C 23.898438 22.460938 22.917969 22.175781 21.613281 22.175781 C 20.609375 22.175781 19.722656 22.261719 18.960938 22.433594 C 18.839844 22.460938 18.71875 22.488281 18.597656 22.519531 C 18.582031 22.523438 18.5625 22.519531 18.550781 22.503906 L 15.453125 19.191406 C 15.433594 19.167969 15.441406 19.132812 15.46875 19.117188 C 16.40625 18.730469 17.378906 18.410156 18.394531 18.160156 C 19.492188 17.886719 20.816406 17.75 22.367188 17.75 C 25.222656 17.75 27.304688 18.441406 28.605469 19.828125 C 29.90625 21.210938 30.558594 23.140625 30.558594 25.617188 Z M 30.558594 36.160156 C 30.558594 36.1875 30.539062 36.207031 30.511719 36.207031 L 25.566406 36.207031 C 25.542969 36.207031 25.523438 36.1875 25.523438 36.160156 L 25.523438 34.351562 C 25.523438 34.308594 25.46875 34.289062 25.441406 34.320312 C 24.816406 34.984375 24.078125 35.515625 23.226562 35.917969 C 22.335938 36.339844 21.25 36.546875 19.96875 36.546875 C 19.101562 36.546875 18.285156 36.429688 17.519531 36.191406 C 16.753906 35.953125 16.085938 35.59375 15.515625 35.117188 C 14.945312 34.640625 14.492188 34.058594 14.164062 33.363281 C 13.832031 32.671875 13.664062 31.871094 13.664062 30.964844 L 13.664062 30.894531 C 13.664062 29.894531 13.847656 29.035156 14.210938 28.308594 C 14.578125 27.582031 15.085938 26.980469 15.738281 26.503906 C 16.390625 26.023438 17.164062 25.667969 18.070312 25.429688 C 18.085938 25.425781 18.101562 25.421875 18.117188 25.417969 C 18.96875 25.195312 19.910156 25.082031 20.933594 25.074219 C 20.945312 25.074219 20.957031 25.078125 20.964844 25.085938 L 22.929688 27.058594 L 23.949219 28.085938 L 24.144531 28.28125 C 24.175781 28.3125 24.144531 28.367188 24.101562 28.359375 C 23.539062 28.234375 22.941406 28.171875 22.300781 28.171875 C 21.894531 28.171875 21.519531 28.199219 21.179688 28.253906 C 20.574219 28.355469 20.070312 28.542969 19.660156 28.816406 C 19.023438 29.25 18.703125 29.875 18.703125 30.691406 L 18.703125 30.757812 C 18.703125 31.460938 18.964844 32.007812 19.492188 32.394531 C 20.015625 32.777344 20.699219 32.972656 21.546875 32.972656 C 22.78125 32.972656 23.769531 32.675781 24.511719 32.085938 C 24.835938 31.828125 25.09375 31.53125 25.273438 31.199219 C 25.289062 31.175781 25.320312 31.167969 25.34375 31.183594 L 30.539062 34.835938 C 30.550781 34.847656 30.558594 34.859375 30.558594 34.875 Z M 26.875 12.394531 L 17.347656 12.394531 C 11.78125 12.394531 7.265625 16.882812 7.265625 22.417969 L 7.265625 31.882812 C 7.265625 37.417969 11.78125 41.902344 17.347656 41.902344 L 26.875 41.902344 C 32.445312 41.902344 36.957031 37.417969 36.957031 31.882812 L 36.957031 22.417969 C 36.957031 16.882812 32.445312 12.394531 26.875 12.394531 " fill-opacity="1" fill-rule="nonzero"/></g></svg>